<?xml version="1.0" encoding="UTF-8"?>
<svg version="1.1" viewBox="0 0 2048 1153" width="1280" height="1280" xmlns="http://www.w3.org/2000/svg">
<path transform="translate(1012,333)" d="m0 0h34l19 2 22 4 24 7 25 11 21 11 17 12 13 11 11 9 11 11 9 11 11 15 8 13 8 16 9 21 6 21 4 17 2 14 1 13v41l-3 24-5 19-7 17-11 20-10 14-13 15-12 11-16 10-17 8-21 7-16 3-9 1h-31l-24-3-17-4-21-8-23-12-22-14-16-13-10-8-13-12-18-18-9-11-13-17-11-17-10-18-14-29-10-27-8-25-8-30-6-28-3-20v-8l11-13 13-13 11-9 16-12 24-14 17-8 33-11 19-4 15-2zm-56 200 2 9 10 20 8 12 5 6 6 4 2-1-11-12-13-21-8-17z" fill="#0A92AE"/>
<path transform="translate(835,427)" d="m0 0 1 3-1 6-1 16v42l3 26 7 29 7 21 11 25 8 16 13 24 11 16 10 13 8 10 12 13 15 15 11 9 13 10 21 13 16 8 25 10 14 4 19 3 10 1h23l28-3 25-6 21-8 16-8 14-9 10-8 13-12 12-12 10-13 8-13 11-23h1l-1 11-5 19-8 19-9 17-14 21-8 10-12 14-9 9-11 9-13 11-17 11-25 13-25 10-25 7-25 4-11 1h-41l-23-3-21-5-20-7-18-8-19-10-20-14-14-11-15-14-12-13-10-13-10-15-10-18-8-17-9-27-6-26-3-20-1-11v-31l3-25 5-23 10-30 11-25 10-18 13-19z" fill="#FDFDFD"/>
<path transform="translate(1012,333)" d="m0 0h34l19 2 22 4 24 7 25 11 21 11 17 12 13 11-3 1 10 13-2 7h-6-3l-7 3-10 2-8 2-2-1-12 3h-3v-2l-10 2-2-1-7 3v2l-24 9 2 2-9 3v2h7l-1 2-11 4h8l5-2h3l-1 3-10 3-6 3-9 1-11 5-14 7h-3l-1 3-8 2-2 2-13 4-13 5-2 4-25 1-3 1v-2l-9-1v2l-18 2-4 3-6 3-5 3h-2l-3 12-4 6-3-1-8 11-6 8-5 4-13 5h-8l-1 2-4 1-3 7-4 3-8-20-10-31-8-30-6-28-3-20v-8l11-13 13-13 11-9 16-12 24-14 17-8 33-11 19-4 15-2z" fill="#0FCCB0"/>
<path transform="translate(1184,392)" d="m0 0h5l17 16 9 10 4 5-1 7 4 5 6 11 9 19 1 4-2 2-10 2-13 2-1 1 2 2-13 5-10 4-4 1v2h-2l1 3-11 5-5 2v3l-8 3h-4l3 5-5 1v2l-5 2 1 4-1 1h-5l-1-1-26 1-16 1-22 10-6 1v1h14l-2 2-5 2 6-1 10-4 21-4 9-1v2l-31 7-21 7-20 4-19 1-11-1-8-2-12-5-12-7v-2l-5-2-11-10v-2l-4-1-6-12-1-3-8-1-3 7v11l3 14 2 9-2-2-2-4 5 12v8l1 11 2 20 3 16 5 22v21l-6 11-7 10-2 4-4-2-8-5-14-14-9-11-13-17-11-17-10-18-14-29 2-4h2l2-7 5-1 1-3h8l15-6 7-8 8-12 3-2h2l3-4 2-9 4-4 5-3 9-5 7-2h12v-2l9 1h3l25-1 2-4 16-6 10-3 4-3 6-1 1-2 9-4 12-6 7-3 9-1 9-4 7-2 1-2-8 3h-11l3-2 11-4-6-1v-2l6-3-1-2 25-10 1-2 8-3 3 1 8-1v2l16-4 2 1 10-3 10-2 6-3 4 1h3l1-6-8-10z" fill="#0CA1A1"/>
<path transform="translate(1259,645)" d="m0 0h1l-1 11-5 19-8 19-9 17-14 21-8 10-12 14-9 9-11 9-13 11-17 11-25 13-25 10-25 7-25 4-11 1h-41l-23-3-21-5-20-7-10-4-2-4-4-2v-2h-2l-2-5 5-1-1-7-3-9-4-26v-9l3-11 3-1 2-6 3-1 2-4 4-10 6-2 5 1 3-3-6-3v-2l-6-4v-2l-4-1-7-9v-2l4 2 13 13 11 9 13 10 21 13 16 8 25 10 14 4 19 3 10 1h23l28-3 25-6 21-8 16-8 14-9 10-8 13-12 12-12 10-13 8-13z" fill="#0A92AE"/>
<path transform="translate(1184,392)" d="m0 0h5l17 16 9 10 4 5-1 7 4 5 6 11 9 19 1 4-2 2-10 2-13 2-1 1 2 2-13 5-10 4-4 1v2h-2l1 3-11 5-5 2v3l-13 4h-5l-4-1-27 6-15 3-1 2-9 1-12 7-7 3-9 4-11 2-14 1h-11l-13-2-8-3-9-3-18-9 3-1 31 9 11 1 16-1 8-2v-2l6-2v-4l8-1v-3l9-4 4-1h2v-3h-4l-1-3 8-6 1-2h2v-2h2v-2l16-8v-3l4-2v2l3-1-1-2 9-5v-3l3-1v-4l11-6-5-5 3-4 1-3-2-1 4-3v-2l10-4h3v-3l21-6v-2l11-4 6-4v-2l5-2 1-6-8-10z" fill="#0CA2AE"/>
<path transform="translate(922,687)" d="m0 0 4 2 13 13 11 9 13 10 21 13 20 10 4 4 5 4v2h2l1 4-3 2-1 10v16l1 2v22l3 13v2h2l3 4-1 2h-19l-23-3-21-5-20-7-10-4-2-4-4-2v-2h-2l-2-5 5-1-1-7-3-9-4-26v-9l3-11 3-1 2-6 3-1 2-4 4-10 6-2 5 1 3-3-6-3v-2l-6-4v-2l-4-1-7-9z" fill="#0A929D"/>
<path transform="translate(959,500)" d="m0 0h5l5 5 8 16 9 13 13 13 14 10 13 6 19 5h26l15-3 13-5 11-7 8-8 6-9 4-2 7 1 3 3v8l-8 16-10 13-14 14-15 10-14 6-13 3-17 1-15-2-17-6-12-7-10-8-8-6-10-12-12-20-3-9-4-14-1-6v-11l3-7z" fill="#FDFDFD"/>
<path transform="translate(952,516)" d="m0 0h2l2 11v8l6 13v8l1 11 2 20 3 16 5 22v21l-6 11-7 10-2 4-4-2-8-5-14-14-4-12-4-3v-3h-2l-2-9 2-3 9-4 11-8 3-6 1-16v-16l1-2 2-24 2-11-1-4 1-8z" fill="#09929D"/>
<path transform="translate(1148,505)" d="m0 0 10 1 3 5-5 1v2l-5 2 1 4-1 1h-5l-1-1-26 1-16 1-22 10-6 1v1h14l-2 2-5 2 6-1 10-4 21-4 9-1v2l-31 7-21 7-20 4-19 1-11-1-8-2-12-5-12-7v-2l-5-2-11-10v-2l-3-1-2-8 5 3 9 7 8 4 7 3 9 3 13 4 14 1h9l13-1 16-5 5-3 16-8 5-1 4-2 23-5z" fill="#09929D"/>
<path transform="translate(1155,599)" d="m0 0 8 2 4 5v8l-4 5-4 2h-7l-6-5-4 3h-9l-6-5v-8l4-5 2-1h7l7 6 2-4z" fill="#FEFEFE"/>
<path transform="translate(915,622)" d="m0 0h4l3 6v4h2l5 6 2 9-5-4-10-13-1-4z" fill="#0BA0AE"/>
<path transform="translate(922,687)" d="m0 0 4 2 16 16-6-2-3-2v-2l-4-1-7-9z" fill="#44ACB4"/>
<path transform="translate(958,499)" d="m0 0v3l-2 6v11l3 14 2 9-2-2-2-5h-2v-8l-1-11-2-1h2v-9l3-6z" fill="#0B9FAE"/>
<path transform="translate(949,531)" d="m0 0 3 2-4 23h-1v-13l1-5z" fill="#0CA2AF"/>
<path transform="translate(840,450)" d="m0 0h1v5h-1z" fill="#0CA2AF"/>
<path transform="translate(839,446)" d="m0 0 1 4z" fill="#0CA2AF"/>
</svg>
